<svg xmlns="http://www.w3.org/2000/svg" viewBox="-98 -95 196 195">
  <defs>
    <linearGradient id="leaf_grad_ginkgo" x1="25%" y1="0%" x2="78%" y2="100%">
      <stop offset="0%" stop-color="#32723f" />
      <stop offset="50%" stop-color="#204f2a" />
      <stop offset="100%" stop-color="#13351a" />
    </linearGradient>
    <filter id="leaf_shadow_ginkgo" x="-20%" y="-20%" width="150%" height="150%">
      <feDropShadow dx="2" dy="4" stdDeviation="3" flood-opacity="0.25" />
    </filter>
  </defs>
  <path d="M 0,-85.5 C -17,-54 -59.49999999999999,-22.5 -80.75,13.5 C -89.25,49.50000000000001 -55.25,81 -10.2,82.8 C -4.25,73.8 4.25,73.8 10.2,82.8 C 55.25,81 89.25,49.50000000000001 80.75,13.5 C 59.49999999999999,-22.5 17,-54 0,-85.5 Z" fill="url(#leaf_grad_ginkgo)" stroke="#dfa25b" stroke-width="2.5" filter="url(#leaf_shadow_ginkgo)" />
  <g opacity="0.8">
    
            <path d="M 0,-79.2 L 0,62.99999999999999" fill="none" stroke="#f2c884" stroke-width="2.0" stroke-linecap="round" />
            <path d="M 0,-68.4 Q -30.599999999999998,-9 -59.49999999999999,32.4" fill="none" stroke="#f2c884" stroke-width="1.3" stroke-linecap="round" />
            <path d="M 0,-68.4 Q 30.599999999999998,-9 59.49999999999999,32.4" fill="none" stroke="#f2c884" stroke-width="1.3" stroke-linecap="round" />
            <path d="M 0,-68.4 Q -17,9 -34,68.4" fill="none" stroke="#f2c884" stroke-width="1.3" stroke-linecap="round" />
            <path d="M 0,-68.4 Q 17,9 34,68.4" fill="none" stroke="#f2c884" stroke-width="1.3" stroke-linecap="round" />
        
  </g>
</svg>